<?xml version="1.0" standalone="no"?><!DOCTYPE svg PUBLIC "-//W3C//DTD SVG 1.1//EN" "http://www.w3.org/Graphics/SVG/1.1/DTD/svg11.dtd"><svg t="1670376475343" class="icon" viewBox="0 0 1024 1024" version="1.1" xmlns="http://www.w3.org/2000/svg" p-id="6325" xmlns:xlink="http://www.w3.org/1999/xlink" width="128" height="128"><path d="M372.363636 139.636364a23.272727 23.272727 0 0 1 23.272728 23.272727v209.454545a23.272727 23.272727 0 0 1-23.272728 23.272728H162.909091a23.272727 23.272727 0 0 1-23.272727-23.272728V162.909091a23.272727 23.272727 0 0 1 23.272727-23.272727h209.454545m0-69.818182H162.909091a93.090909 93.090909 0 0 0-93.090909 93.090909v209.454545a93.090909 93.090909 0 0 0 93.090909 93.090909h209.454545a93.090909 93.090909 0 0 0 93.090909-93.090909V162.909091a93.090909 93.090909 0 0 0-93.090909-93.090909zM861.090909 139.636364a23.272727 23.272727 0 0 1 23.272727 23.272727v209.454545a23.272727 23.272727 0 0 1-23.272727 23.272728h-209.454545a23.272727 23.272727 0 0 1-23.272728-23.272728V162.909091a23.272727 23.272727 0 0 1 23.272728-23.272727h209.454545m0-69.818182h-209.454545a93.090909 93.090909 0 0 0-93.090909 93.090909v209.454545a93.090909 93.090909 0 0 0 93.090909 93.090909h209.454545a93.090909 93.090909 0 0 0 93.090909-93.090909V162.909091a93.090909 93.090909 0 0 0-93.090909-93.090909zM372.363636 628.363636a23.272727 23.272727 0 0 1 23.272728 23.272728v209.454545a23.272727 23.272727 0 0 1-23.272728 23.272727H162.909091a23.272727 23.272727 0 0 1-23.272727-23.272727v-209.454545a23.272727 23.272727 0 0 1 23.272727-23.272728h209.454545m0-69.818181H162.909091a93.090909 93.090909 0 0 0-93.090909 93.090909v209.454545a93.090909 93.090909 0 0 0 93.090909 93.090909h209.454545a93.090909 93.090909 0 0 0 93.090909-93.090909v-209.454545a93.090909 93.090909 0 0 0-93.090909-93.090909zM861.090909 628.363636a23.272727 23.272727 0 0 1 23.272727 23.272728v209.454545a23.272727 23.272727 0 0 1-23.272727 23.272727h-209.454545a23.272727 23.272727 0 0 1-23.272728-23.272727v-209.454545a23.272727 23.272727 0 0 1 23.272728-23.272728h209.454545m0-69.818181h-209.454545a93.090909 93.090909 0 0 0-93.090909 93.090909v209.454545a93.090909 93.090909 0 0 0 93.090909 93.090909h209.454545a93.090909 93.090909 0 0 0 93.090909-93.090909v-209.454545a93.090909 93.090909 0 0 0-93.090909-93.090909z" p-id="6326" fill="#707070"></path></svg>